# xmcd
#
# Track frame offsets: 
#        150
#        22693
#        37965
#        53742
#        71566
#        91436
#        103738
#        117062
#        134380
#        154263
#        168198
#        181478
#
# Disc length: 2586 seconds
#
# Revision: 0
# Processed by: cddbd v1.5.2PL0 Copyright (c) Steve Scherf et al.
# Submitted via: ExactAudioCopy v1.0b3
#
DISCID=930a180c
DTITLE=Red Sovine - Super Hts
DYEAR=2011
DGENRE=Country
TTITLE0=Teddy Bear
TTITLE1=Phantom 309
TTITLE2=Daddy's Girl
TTITLE3=Giddy-Up-Go
TTITLE4=Little Joe
TTITLE5=Colorado Kool-Aid
TTITLE6=It'll Come Back
TTITLE7=Little Rosa
TTITLE8=Daddy
TTITLE9=18 Wheels Hummin' Home Sweet Home
TTITLE10=Flesh And Blood
TTITLE11=Satisfied Mind
EXTD=
EXTT0=
EXTT1=
EXTT2=
EXTT3=
EXTT4=
EXTT5=
EXTT6=
EXTT7=
EXTT8=
EXTT9=
EXTT10=
EXTT11=
PLAYORDER=
